<svg width="197" height="29" viewBox="0 0 197 29" fill="none" xmlns="http://www.w3.org/2000/svg">
<g clip-path="url(#clip0_1_1336)">
<path opacity="0.988" fill-rule="evenodd" clip-rule="evenodd" d="M8.29078 0.544885C15.1638 0.531962 22.0369 0.544885 28.9099 0.583649C29.0609 0.628173 29.1746 0.718624 29.2511 0.854998C29.3016 2.6898 29.3016 4.52459 29.2511 6.35942C29.1879 6.424 29.1246 6.48866 29.0615 6.55324C21.5525 6.55378 14.0477 6.60542 6.54725 6.7083C6.45621 6.7783 6.39299 6.8687 6.35774 6.97964C6.30717 8.34929 6.30717 9.71893 6.35774 11.0886C6.41724 11.227 6.50563 11.3433 6.62305 11.4375C10.4386 11.4633 14.2542 11.4892 18.0697 11.5149C18.2087 11.5537 18.2971 11.6442 18.335 11.7863C18.3856 13.5952 18.3856 15.4043 18.335 17.2132C18.2971 17.3553 18.2087 17.4458 18.0697 17.4846C14.6837 17.5363 11.2978 17.5363 7.91178 17.4846C4.63285 16.9721 2.32078 15.176 0.975532 12.0964C-0.0777876 8.89426 0.452852 5.99993 2.56745 3.41339C4.11517 1.69807 6.0229 0.741905 8.29078 0.544885Z" fill="#FD5000"/>
<path opacity="0.985" fill-rule="evenodd" clip-rule="evenodd" d="M55.9724 6.28171C59.8638 6.26876 63.7552 6.28171 67.6464 6.32047C67.6843 6.35923 67.7222 6.398 67.7601 6.43676C67.8109 7.36709 67.8109 8.29743 67.7601 9.22772C67.7222 9.26649 67.6843 9.30526 67.6464 9.34403C66.3072 9.36982 64.9679 9.39577 63.6287 9.42157C63.5656 9.48613 63.5024 9.55077 63.4392 9.61541C63.4266 10.7266 63.414 11.8379 63.4013 12.949C63.3898 14.119 63.4277 15.2819 63.515 16.4377C64.8865 16.5018 66.2637 16.5405 67.6464 16.554C67.6843 16.5928 67.7222 16.6316 67.7601 16.6703C67.8223 17.6454 67.8094 18.6144 67.7222 19.5776C65.7577 19.6674 63.7868 19.7062 61.8094 19.6939C59.889 19.6809 57.9685 19.6681 56.0482 19.6551C55.9787 19.6261 55.9155 19.5874 55.8586 19.5388C55.7964 18.5639 55.809 17.5948 55.8965 16.6316C57.2795 16.5302 58.6692 16.4786 60.0658 16.4765C60.1038 16.4377 60.1417 16.399 60.1796 16.3603C60.2421 14.0829 60.2294 11.8087 60.1417 9.53787C60.1019 9.48422 60.0513 9.44545 59.99 9.42157C58.6508 9.39577 57.3116 9.36982 55.9724 9.34403C55.9344 9.30526 55.8965 9.26649 55.8586 9.22772C55.808 8.29743 55.808 7.36709 55.8586 6.43676C55.913 6.39459 55.9509 6.34288 55.9724 6.28171Z" fill="white"/>
<path opacity="0.98" fill-rule="evenodd" clip-rule="evenodd" d="M71.0583 6.28171C74.343 6.26876 77.6282 6.28171 80.9131 6.32047C81.2713 6.53143 81.5876 6.80277 81.8608 7.13451C82.4674 7.80642 83.0734 8.4783 83.68 9.15019C83.8479 9.32258 83.9502 9.52925 83.983 9.77041C84.0337 12.9748 84.0337 16.1794 83.983 19.3838C83.9554 19.4548 83.9173 19.5194 83.8696 19.5776C82.9413 19.7037 82.007 19.7295 81.0646 19.6551C80.9258 19.6164 80.837 19.5259 80.7996 19.3838C80.7743 16.1019 80.7489 12.8198 80.7235 9.53787C80.6668 9.48933 80.6041 9.45057 80.534 9.42157C78.4625 9.36982 76.3895 9.36982 74.318 9.42157C74.2482 9.45057 74.1853 9.48933 74.1284 9.53787C74.1034 12.8457 74.0777 16.1535 74.0526 19.4613C73.9844 19.5545 73.8957 19.6191 73.7873 19.6551C72.9027 19.7069 72.0187 19.7069 71.1341 19.6551C71.0644 19.6261 71.0014 19.5874 70.9446 19.5388C70.9317 17.3423 70.9196 15.1456 70.9067 12.949C70.9075 10.7101 70.9575 8.48761 71.0583 6.28171ZM87.2805 6.28171C90.5914 6.26876 93.9009 6.28171 97.2111 6.32047C97.5439 6.5053 97.8349 6.75083 98.0834 7.05698C98.7625 7.88128 99.4706 8.68237 100.206 9.46033C100.23 9.56367 100.256 9.66707 100.282 9.77041C100.332 12.949 100.332 16.1277 100.282 19.3063C100.258 19.4044 100.22 19.4949 100.168 19.5776C99.24 19.7037 98.305 19.7295 97.3626 19.6551C97.2245 19.6164 97.1357 19.5259 97.0977 19.3838C97.0723 16.1019 97.0469 12.8198 97.0215 9.53787C96.9648 9.48933 96.9022 9.45057 96.832 9.42157C94.7605 9.36982 92.6883 9.36982 90.6161 9.42157C90.5467 9.45057 90.4832 9.48933 90.4265 9.53787C90.4019 12.8457 90.3758 16.1535 90.3512 19.4613C90.2825 19.5545 90.1937 19.6191 90.0855 19.6551C89.2012 19.7069 88.317 19.7069 87.432 19.6551C87.3626 19.6261 87.2999 19.5874 87.2432 19.5388C87.1798 15.1143 87.1924 10.6954 87.2805 6.28171Z" fill="white"/>
<path opacity="0.982" fill-rule="evenodd" clip-rule="evenodd" d="M106.536 6.28171C109.037 6.26876 111.538 6.28171 114.04 6.32047C114.323 6.45304 114.563 6.64686 114.761 6.90192C115.466 7.75208 116.198 8.57896 116.959 9.3828C117.084 11.702 117.109 14.0278 117.035 16.3603C116.121 17.4141 115.199 18.4608 114.268 19.5001C114.147 19.5669 114.021 19.6187 113.889 19.6551C111.488 19.7069 109.088 19.7069 106.687 19.6551C106.554 19.6187 106.428 19.5669 106.308 19.5001C105.411 18.531 104.514 17.5619 103.617 16.5928C103.492 14.2479 103.467 11.8962 103.541 9.53787C104.375 8.58171 105.209 7.62549 106.043 6.66934C106.193 6.51042 106.356 6.38118 106.536 6.28171ZM106.915 9.3828C109.192 9.35761 111.466 9.38341 113.737 9.46033C113.79 9.50101 113.827 9.55275 113.851 9.61541C113.902 11.8637 113.902 14.1119 113.851 16.3603C113.813 16.399 113.775 16.4377 113.737 16.4765C111.438 16.5282 109.138 16.5282 106.839 16.4765C106.801 16.4377 106.763 16.399 106.725 16.3603C106.675 14.0861 106.675 11.8119 106.725 9.53787C106.8 9.49399 106.864 9.44225 106.915 9.3828ZM122.985 6.28171C126.169 6.26876 129.353 6.28171 132.537 6.32047C132.575 6.35923 132.613 6.398 132.651 6.43676C132.702 7.36709 132.702 8.29743 132.651 9.22772C132.613 9.26649 132.575 9.30526 132.537 9.34403C129.429 9.36982 126.321 9.39577 123.213 9.42157C123.143 9.45057 123.08 9.48933 123.023 9.53787C122.973 10.1063 122.973 10.675 123.023 11.2435C123.08 11.292 123.143 11.3308 123.213 11.3598C125.563 11.3856 127.913 11.4114 130.263 11.4373C131.261 12.3546 132.259 13.2721 133.257 14.1895C133.308 14.2928 133.358 14.3962 133.408 14.4996C133.422 14.8485 133.434 15.1973 133.446 15.5462C133.455 15.9552 133.418 16.3558 133.333 16.7479C132.357 17.7196 131.359 18.6629 130.339 19.5776C128.713 19.6669 127.084 19.7056 125.449 19.6939C123.895 19.6809 122.341 19.6681 120.787 19.6551C120.718 19.6261 120.654 19.5874 120.597 19.5388C120.547 18.5827 120.547 17.6265 120.597 16.6703C120.654 16.6218 120.718 16.583 120.787 16.554C123.895 16.5282 127.003 16.5024 130.111 16.4765C130.149 16.4377 130.187 16.399 130.225 16.3603C130.276 15.8175 130.276 15.2748 130.225 14.7322C130.187 14.6417 130.124 14.5771 130.036 14.5384C127.686 14.5125 125.335 14.4866 122.985 14.4608C121.962 13.5176 120.938 12.5743 119.915 11.6311C119.663 10.8041 119.663 9.97722 119.915 9.15019C120.909 8.14725 121.932 7.1911 122.985 6.28171Z" fill="white"/>
<path opacity="0.99" fill-rule="evenodd" clip-rule="evenodd" d="M134.584 6.28171C139.081 6.26876 143.579 6.28171 148.077 6.32047C148.115 6.35923 148.153 6.398 148.191 6.43676C148.242 7.36709 148.242 8.29743 148.191 9.22772C148.153 9.26649 148.115 9.30526 148.077 9.34403C146.359 9.3828 144.641 9.39577 142.922 9.3828C142.935 12.7682 142.922 16.1536 142.885 19.5388C142.827 19.5874 142.765 19.6261 142.695 19.6551C141.786 19.7069 140.876 19.7069 139.966 19.6551C139.877 19.6164 139.814 19.5518 139.777 19.4613C139.739 16.1019 139.725 12.7424 139.739 9.3828C138.02 9.39577 136.302 9.3828 134.584 9.34403C134.546 9.30526 134.508 9.26649 134.47 9.22772C134.419 8.29743 134.419 7.36709 134.47 6.43676C134.525 6.39459 134.562 6.34288 134.584 6.28171Z" fill="white"/>
<path opacity="0.979" fill-rule="evenodd" clip-rule="evenodd" d="M153.08 6.28171C155.581 6.26876 158.083 6.28171 160.585 6.32047C160.842 6.42901 161.058 6.59701 161.23 6.8244C161.959 7.70042 162.717 8.55317 163.503 9.3828C163.629 12.7617 163.654 16.147 163.579 19.5388C163.523 19.5874 163.459 19.6261 163.39 19.6551C162.48 19.7069 161.571 19.7069 160.661 19.6551C160.599 19.6312 160.549 19.5925 160.509 19.5388C160.435 18.4055 160.409 17.2685 160.433 16.1277C158.033 16.1277 155.632 16.1277 153.232 16.1277C153.244 17.2133 153.232 18.2987 153.194 19.3838C153.166 19.4548 153.128 19.5194 153.08 19.5776C152.152 19.7037 151.218 19.7295 150.275 19.6551C150.136 19.6164 150.048 19.5259 150.01 19.3838C149.959 16.1794 149.959 12.9748 150.01 9.77041C150.045 9.6351 150.096 9.50582 150.162 9.3828C150.973 8.52737 151.756 7.64875 152.512 6.74687C152.671 6.54368 152.861 6.38862 153.08 6.28171ZM153.459 9.3828C155.736 9.35761 158.01 9.38341 160.282 9.46033C160.334 9.50101 160.372 9.55275 160.395 9.61541C160.433 10.778 160.446 11.9409 160.433 13.1041C158.033 13.1041 155.632 13.1041 153.232 13.1041C153.219 11.915 153.232 10.7263 153.27 9.53787C153.344 9.49399 153.408 9.44225 153.459 9.3828Z" fill="white"/>
<path opacity="0.974" fill-rule="evenodd" clip-rule="evenodd" d="M169.984 6.28201C173.363 6.25643 176.736 6.28225 180.104 6.35954C180.19 6.84253 180.228 7.33351 180.218 7.83255C180.205 8.2719 180.193 8.71118 180.18 9.15053C180.152 9.2215 180.114 9.28622 180.066 9.34429C176.806 9.37017 173.547 9.39604 170.288 9.42183C170.217 9.45083 170.155 9.4896 170.098 9.53814C170.047 11.8123 170.047 14.0864 170.098 16.3605C170.136 16.3993 170.173 16.4381 170.211 16.4768C172.46 16.5156 174.709 16.5285 176.958 16.5156C176.958 15.7921 176.958 15.0684 176.958 14.3448C175.821 14.3578 174.684 14.3448 173.547 14.306C173.456 14.2361 173.393 14.1457 173.357 14.0347C173.307 13.2594 173.307 12.4842 173.357 11.7089C173.386 11.6379 173.423 11.5732 173.471 11.5151C175.688 11.4509 177.899 11.4637 180.104 11.5539C180.229 14.1573 180.255 16.7674 180.18 19.3841C180.142 19.5262 180.053 19.6167 179.914 19.6555C176.68 19.7071 173.446 19.7071 170.211 19.6555C169.047 18.749 167.947 17.7541 166.914 16.6707C166.789 14.2968 166.765 11.9194 166.838 9.53814C166.874 9.40275 166.924 9.27355 166.99 9.15053C167.979 8.17628 168.978 7.22009 169.984 6.28201Z" fill="white"/>
<path opacity="0.979" fill-rule="evenodd" clip-rule="evenodd" d="M186.586 6.28171C189.845 6.26876 193.106 6.28171 196.365 6.32047C196.413 6.37862 196.451 6.44327 196.478 6.51429C196.529 7.39291 196.529 8.27156 196.478 9.15019C196.451 9.22124 196.413 9.28588 196.365 9.34403C193.181 9.36982 189.998 9.39577 186.813 9.42157C186.725 9.46033 186.662 9.5249 186.624 9.61541C186.586 10.235 186.573 10.8552 186.586 11.4761C189.593 11.4631 192.6 11.4761 195.607 11.5148C195.655 11.5729 195.693 11.6376 195.72 11.7086C195.771 12.4839 195.771 13.2592 195.72 14.0344C195.685 14.1454 195.622 14.2358 195.531 14.3058C192.55 14.3445 189.568 14.3575 186.586 14.3445C186.573 15.017 186.586 15.6888 186.624 16.3603C186.662 16.399 186.7 16.4377 186.737 16.4765C189.921 16.5024 193.106 16.5282 196.289 16.554C196.38 16.6241 196.443 16.7145 196.478 16.8254C196.529 17.6782 196.529 18.531 196.478 19.3838C196.44 19.5259 196.352 19.6164 196.214 19.6551C193.055 19.7069 189.896 19.7069 186.737 19.6551C186.414 19.4524 186.11 19.2198 185.828 18.9574C185.057 18.2209 184.287 17.4844 183.516 16.7479C183.391 14.2995 183.366 11.8444 183.44 9.3828C183.546 9.11905 183.711 8.89934 183.933 8.72381C184.832 7.92021 185.717 7.10613 186.586 6.28171Z" fill="white"/>
<path opacity="0.989" fill-rule="evenodd" clip-rule="evenodd" d="M24.5896 11.4761C28.1292 11.4406 31.6668 11.4793 35.2024 11.5924C39.6286 12.5397 41.9786 15.3177 42.2523 19.9266C42.0851 23.437 40.4932 26.0083 37.4765 27.6406C36.5837 28.0562 35.6488 28.3147 34.6718 28.4158C27.6218 28.4675 20.5719 28.4675 13.522 28.4158C13.4841 28.377 13.4462 28.3383 13.4083 28.2995C13.3456 26.3428 13.3581 24.3917 13.4462 22.4462C21.0015 22.4204 28.5568 22.3945 36.1121 22.3687C36.15 22.3299 36.1879 22.2912 36.2258 22.2524C36.3502 20.7864 36.3754 19.3134 36.3016 17.8334C36.2663 17.7224 36.2031 17.632 36.1121 17.562C32.246 17.5362 28.3799 17.5103 24.5138 17.4845C24.4507 17.4199 24.3875 17.3553 24.3243 17.2906C24.2737 15.4559 24.2737 13.6211 24.3243 11.7862C24.3766 11.6428 24.465 11.5394 24.5896 11.4761Z" fill="#FD5000"/>
</g>
<defs>
<clipPath id="clip0_1_1336">
<rect width="197" height="29" fill="white"/>
</clipPath>
</defs>
</svg>
